PathFileType	4	(X/Y/Z)	s01c0301.trc
DataRate	CameraRate	NumFrames	NumMarkers	Units	OrigDataRate	OrigDataStartFrame	OrigNumFrames
200	200	6	48	mm	200	1500	2000
Frame#	Time	racr			lacr			c7			jug			rlel			rdr			llel			ldr			s2			lic			ric			lasi			rasi			rpsi			lpsi			rgt			lgt			rth1			rth2			rth3			rth4			rlfc			rsh1			rsh2			rsh3			rsh4			rlmal			rmmal			rcal			rtoe			rmt5			lth1			lth2			lth4			lth3			llfc			lsh1			lsh2			lsh3			lsh4			llmal			lmmal			lcal			ltoe			lmt5			SBIKE			LBIKE			RBIKE			
		X1	Y1	Z1	X2	Y2	Z2	X3	Y3	Z3	X4	Y4	Z4	X5	Y5	Z5	X6	Y6	Z6	X7	Y7	Z7	X8	Y8	Z8	X9	Y9	Z9	X10	Y10	Z10	X11	Y11	Z11	X12	Y12	Z12	X13	Y13	Z13	X14	Y14	Z14	X15	Y15	Z15	X16	Y16	Z16	X17	Y17	Z17	X18	Y18	Z18	X19	Y19	Z19	X20	Y20	Z20	X21	Y21	Z21	X22	Y22	Z22	X23	Y23	Z23	X24	Y24	Z24	X25	Y25	Z25	X26	Y26	Z26	X27	Y27	Z27	X28	Y28	Z28	X29	Y29	Z29	X30	Y30	Z30	X31	Y31	Z31	X32	Y32	Z32	X33	Y33	Z33	X34	Y34	Z34	X35	Y35	Z35	X36	Y36	Z36	X37	Y37	Z37	X38	Y38	Z38	X39	Y39	Z39	X40	Y40	Z40	X41	Y41	Z41	X42	Y42	Z42	X43	Y43	Z43	X44	Y44	Z44	X45	Y45	Z45	X46	Y46	Z46	X47	Y47	Z47	X48	Y48	Z48	
1500	7.5000	716.542725	1366.357300	-110.916519	724.416870	1315.798706	-439.032104	703.825989	1416.941040	-267.285797	683.578918	1252.310547	-262.094788	666.845703	1092.439941	3.172674	737.177124	847.571899	-58.890469	587.638062	1067.316040	-547.270508	720.822693	881.470581	-434.865417	161.746765	1231.366333	-223.398163	314.968231	1222.714600	-417.140045	333.540802	1227.698486	-89.903229	316.761841	1171.326172	-388.704376	353.026062	1174.069214	-118.018051	197.969025	1272.151489	-177.102097	187.025406	1270.577759	-282.989532	283.783691	1111.259277	-49.882591	251.133804	1087.909912	-423.188568	364.834625	1005.172302	-44.734203	415.892029	940.804932	-56.190525	465.458984	866.798340	-71.741592	454.707794	971.886658	-81.623611	481.765930	757.821960	-97.685524	379.986267	695.761780	-58.740467	312.458160	644.289795	-60.914375	236.319061	598.137573	-68.391663	338.242493	607.972656	-100.998680	126.239563	544.708984	-84.173927	159.004028	519.261536	-160.198807	86.570320	566.370789	-138.338501	184.948135	312.453033	-137.369370	115.543495	391.409119	-64.170807	306.462250	969.341492	-426.664581	371.413574	909.093384	-426.640411	409.744415	947.619324	-422.345093	427.991669	845.965088	-409.712708	479.322174	744.464233	-393.523193	412.465759	652.171082	-431.831573	385.281586	569.549316	-428.875488	356.111267	489.439972	-419.598175	438.853699	553.812866	-402.994965	308.987305	372.759705	-411.910767	344.659363	376.560516	-332.419220	254.897568	352.535126	-373.576477	511.358276	249.326385	-369.059662	407.875854	257.695618	-439.372131	-222.565628	893.332458	-249.591461	-11.971078	84.526970	-453.701843	-20.058981	80.936386	-53.482452	
1501	7.5050	715.971741	1366.719360	-110.483574	725.418030	1315.439575	-438.252991	703.909790	1417.225098	-267.178040	683.618286	1252.533813	-261.699524	666.178467	1092.376709	2.618354	737.087891	847.695496	-59.118343	590.084839	1067.339478	-548.216492	721.310303	880.181152	-434.968445	161.123901	1230.228271	-226.162582	314.132812	1219.938354	-419.042725	332.928619	1228.650146	-91.629173	317.213989	1169.500488	-390.227448	352.450317	1174.709839	-119.161263	196.989731	1271.407593	-179.785049	186.890335	1269.064209	-285.625458	283.856689	1112.548218	-50.827030	250.566452	1084.802856	-424.190826	367.326843	1008.265259	-44.418705	420.082184	945.205933	-55.720074	471.434692	872.398132	-72.028687	457.986237	977.134277	-81.777130	488.806702	763.203430	-97.176117	386.125458	701.620300	-58.690475	317.986908	651.374329	-60.620621	240.945694	606.656555	-68.002052	342.757843	614.998047	-101.179565	129.496933	553.947937	-84.037926	162.924194	529.714111	-160.886490	89.591255	576.188843	-137.839981	190.202850	323.093353	-137.570404	120.285812	401.300140	-64.126167	302.138977	966.041504	-427.319763	365.436646	903.895447	-427.194397	404.714905	941.304016	-423.373779	420.256348	839.265381	-410.173035	471.508118	737.423401	-394.064392	406.465271	644.578247	-433.090973	379.942566	561.791199	-429.875153	351.456696	481.392212	-420.505219	433.229401	546.596985	-402.987549	305.098511	363.696167	-412.279480	341.751099	368.726776	-334.003632	251.452133	344.395477	-374.060394	506.907593	238.416168	-369.006744	403.540039	247.672226	-439.456604	-222.592239	893.319031	-249.636368	-11.998419	84.512123	-453.712189	-20.069105	80.937981	-53.485489	
1502	7.5100	715.254395	1367.167969	-110.029991	726.517761	1315.269531	-437.378479	703.957581	1417.596436	-266.963989	683.679077	1252.926147	-261.327820	665.681702	1092.295532	1.962539	736.994141	847.849976	-59.387428	592.842468	1067.406372	-549.133667	721.629944	879.152588	-435.207642	160.835312	1229.218506	-229.053574	313.365265	1217.585571	-421.007782	332.284180	1229.615845	-93.349098	317.671509	1167.750488	-391.964508	351.855286	1175.395386	-120.357704	196.073318	1270.782593	-182.725479	186.972809	1267.647827	-288.362305	283.819122	1114.028320	-52.096481	249.708359	1082.122437	-425.382233	369.700592	1011.675415	-44.155396	424.007324	949.961792	-55.231903	477.171753	878.342773	-71.577400	461.052246	982.717712	-81.676910	495.327820	768.678955	-96.360649	392.306732	708.132019	-58.295345	323.639557	658.543457	-60.412006	245.944962	615.058350	-67.846664	347.743622	622.085266	-101.206924	133.399094	563.601074	-83.862457	166.944473	539.589172	-160.923798	93.127174	585.885437	-137.344452	196.042496	333.563782	-137.796082	125.551147	411.003448	-64.020592	297.688171	963.021912	-427.967712	359.102203	898.926880	-427.792084	399.542480	935.210632	-424.986816	411.675262	832.893372	-411.385437	463.144440	730.717529	-394.681671	400.225189	637.087097	-434.087982	374.485504	553.933105	-430.671600	346.499023	473.571442	-421.566711	427.307037	539.532715	-402.901733	300.594116	354.605042	-412.223419	338.042084	361.135223	-335.474976	247.493240	336.775848	-374.958710	501.465240	227.146454	-368.383148	398.737549	238.099548	-439.547028	-222.587341	893.337891	-249.672913	-11.998977	84.518311	-453.706848	-20.065996	80.925331	-53.493256	
1503	7.5150	714.509521	1367.718506	-109.355133	727.685547	1315.219482	-436.365234	703.975342	1418.048340	-266.644043	683.810364	1253.394043	-260.864502	665.079529	1092.332520	1.301007	736.982178	848.074829	-59.609352	596.055237	1067.453735	-549.688110	722.022888	878.125000	-435.426819	160.534897	1228.318115	-232.018127	312.805054	1215.764282	-422.883759	331.502991	1230.430908	-95.245285	318.047546	1165.938354	-393.781982	351.236481	1176.193970	-121.635078	195.260376	1270.257812	-185.774200	187.155075	1266.505615	-291.285797	283.422485	1115.351562	-53.227467	248.608109	1079.839233	-426.657379	371.671692	1015.199097	-43.987637	427.564484	954.820374	-54.657856	482.526978	884.526245	-70.784843	463.772797	988.462646	-81.418655	501.702576	774.583618	-95.282440	398.751099	714.665527	-57.922485	329.479065	665.912659	-60.167500	251.224350	623.299316	-67.811363	353.147491	629.099365	-100.978897	137.922012	572.950439	-83.734100	171.569153	549.197449	-161.061462	96.876251	594.780212	-137.517792	202.564041	343.828094	-137.834808	131.355087	420.522644	-64.043083	293.187866	960.264526	-428.701294	352.641968	894.246643	-428.498108	394.103394	929.377869	-426.201965	403.198486	827.094116	-412.244965	454.268707	724.226562	-395.393738	393.788605	629.678345	-434.912262	368.600525	546.323730	-431.498077	341.266602	465.763123	-422.493134	421.168335	532.486755	-402.619171	295.497101	347.212402	-413.428925	333.589478	353.809448	-336.834961	243.275177	329.508728	-375.192139	495.832520	216.755493	-368.157623	393.346100	228.883240	-439.530792	-222.584549	893.325134	-249.697754	-11.982655	84.491211	-453.708130	-20.078323	80.938103	-53.491638	
1504	7.5200	713.647644	1368.421143	-108.653114	728.831970	1315.305664	-435.211945	703.951904	1418.715576	-266.222656	683.985046	1254.212769	-260.203644	664.563354	1092.411499	0.632570	736.947021	848.364746	-59.837921	599.429138	1067.541626	-550.268494	722.505005	877.056824	-435.599792	160.290924	1227.643066	-235.104950	312.793457	1214.482422	-424.883636	330.578247	1231.228760	-97.037918	318.451538	1164.278442	-395.794342	350.565948	1176.998535	-122.927750	194.729706	1269.662720	-188.951569	187.420044	1265.485596	-294.446289	283.040710	1116.793823	-54.412994	247.361954	1078.049561	-428.017639	373.274017	1018.928284	-43.821350	430.637695	959.887146	-54.059845	487.419037	890.866272	-69.595093	466.117279	994.232239	-80.872559	507.991272	781.028076	-94.059952	405.183075	721.437317	-57.429031	335.455353	673.350159	-59.944012	256.818726	631.536743	-67.912506	358.640045	636.811340	-101.136810	142.944214	581.955872	-83.807190	176.492783	557.952698	-160.560638	101.292007	603.492615	-137.733688	209.617035	353.679047	-137.839645	137.672653	429.751556	-64.111053	288.599945	957.777893	-429.608337	346.145447	889.955444	-429.339294	388.632996	923.883362	-428.035797	394.573639	821.695251	-413.192261	444.941406	717.878174	-396.292236	386.930328	622.605347	-435.523010	362.369873	538.972168	-432.104553	335.692139	458.159698	-423.328125	414.656067	525.613892	-402.305908	290.195984	339.388824	-413.613861	328.450500	346.773041	-338.085358	238.647247	322.822571	-375.452118	489.723083	206.455093	-367.776337	387.181488	219.830353	-439.293915	-222.551376	893.355408	-249.584229	-11.969902	84.503510	-453.712219	-20.055035	80.932739	-53.512623	
1505	7.5250	712.697083	1369.281860	-107.822113	729.978699	1315.519775	-434.051025	703.795044	1419.404053	-265.708252	684.200500	1254.925903	-259.610229	663.945679	1092.648193	-0.065655	736.908020	848.802185	-60.083347	602.888977	1067.700439	-550.740234	722.998596	876.059143	-435.772125	160.108688	1227.085571	-238.274338	313.268127	1213.647827	-426.902374	329.430969	1231.882446	-98.884178	318.961609	1162.660522	-397.758118	349.860352	1177.905518	-124.393204	193.989792	1269.456421	-192.018921	187.731110	1264.529541	-297.547150	282.474854	1118.367432	-55.613667	246.066345	1076.581665	-429.320984	374.448730	1022.633606	-43.752468	433.017914	965.037842	-52.868496	491.808746	897.209106	-68.128342	468.121246	999.981934	-80.190681	514.394348	787.740173	-92.679207	411.666260	728.418396	-56.957062	341.548676	680.794312	-59.750652	262.646851	639.653870	-68.091476	364.613739	644.259216	-101.068932	148.360687	590.579529	-84.180748	182.290497	566.884949	-161.193924	106.138885	611.708984	-138.265701	217.183868	363.105865	-137.852280	144.573563	438.551544	-64.235985	284.154572	955.563965	-430.722351	339.675476	885.975464	-430.411835	383.044861	918.735413	-429.695557	386.065369	816.203003	-414.186768	435.297699	711.737793	-397.252686	379.316467	615.831360	-436.190125	355.509521	531.966919	-432.702789	329.569672	450.916412	-424.085358	407.632324	519.211365	-402.413849	284.619843	331.980682	-413.690369	322.682312	340.049500	-339.227966	233.685074	316.594849	-375.652893	483.012115	196.647110	-367.427338	380.831421	211.557663	-439.362946	-222.598907	893.317322	-249.797165	-11.952690	84.483597	-453.715851	-20.041502	80.946487	-53.503944	
